<svg style="background-color:#0d2244" xmlns="http://www.w3.org/2000/svg" width="537" height="227" viewBox="0 0 537 227">
  <metadata><?xpacket begin="﻿" id="W5M0MpCehiHzreSzNTczkc9d"?>
<x:xmpmeta xmlns:x="adobe:ns:meta/" x:xmptk="Adobe XMP Core 5.6-c142 79.160924, 2017/07/13-01:06:39        ">
   <rdf:RDF xmlns:rdf="http://www.w3.org/1999/02/22-rdf-syntax-ns#">
      <rdf:Description rdf:about=""/>
   </rdf:RDF>
</x:xmpmeta>
                                                                                                    
                                                                                                    
                                                                                                    
                                                                                                    
                                                                                                    
                                                                                                    
                                                                                                    
                                                                                                    
                                                                                                    
                                                                                                    
                                                                                                    
                                                                                                    
                                                                                                    
                                                                                                    
                                                                                                    
                                                                                                    
                                                                                                    
                                                                                                    
                                                                                                    
                                                                                                    
                           
<?xpacket end="w"?></metadata>
<defs>
    <style>
      .cls-1 {
        fill: #fff;
        fill-rule: evenodd;
      }
    </style>
  </defs>
  <path id="mirage" class="cls-1" d="M69.657,81.659c-2,3.006-16.367,24.216-12.526,5.678a72.407,72.407,0,0,0,2.338-10.02c-0.167-1,0-2-.5-2.672-0.835-.835-2-1.5-2.839-2.338-0.835-.334-1.5.167-2,1.336a32.489,32.489,0,0,0-1.336,3.674c-0.668,1.336-.835,2.672-1.336,3.841-1.5,4.008-2.839,7.849-3.006,11.691a19.7,19.7,0,0,1-.668,3.34c-1.5,5.177-2.672,10.354-4.008,15.531l-2,8.017C41.1,122.242,36.923,132.1,36.422,134.6c-0.835,2.172-.835,4.343-1.336,6.347-1.336,5.511-2.672,10.855-5.845,16.533a1.981,1.981,0,0,0-.167,1.337c1,0.5,1.837,1.336,3.173,1.5,2.171,0.334,3.841.668,4.676,2.672a2.055,2.055,0,0,0,.835.334c0.835,0.668,1.67.5,2.672-1A13.134,13.134,0,0,0,41.6,158.65c2-12.359,15.2-29.394,20.542-40.917a51.458,51.458,0,0,0,5.678-8.184c13.695-21.377,3.34,2.171-.334,20.709,0.334,2.338-.835,4.509-2.672,7.182a87.025,87.025,0,0,0-5.01,7.682c-1.169,2-1,1.837.167,2.672,1.336,1.169,3.507,1.336,5.177,1.837,2.672,0.835,5.344.668,8.684-.5,1.837-.5,3.507-1.169,4.509-3.507a0.631,0.631,0,0,1,.334.334,40.513,40.513,0,0,0,2.338-3.34h0.334c-0.5.668-.334,1.336-0.334,2.338,2.338-2.171,4.342-3.507,5.678-5.845,3.173-5.178,14.028-20.542,15.865-25.72a5.253,5.253,0,0,1,1.5-2,1.233,1.233,0,0,1,.835-1c2.172-1.336,3.007-2.171,3.842-4.342a5.307,5.307,0,0,0,.5-1.5,0.731,0.731,0,0,1,.5-0.167,0.885,0.885,0,0,0,.334.5c11.356-15.866,10.688-14.029,8.183.668h0.5c1-2.5,2-5.01,3.173-7.515l0.167,0.167v0.835a7.755,7.755,0,0,0-1.5,5.511,3.17,3.17,0,0,1-.5,1.5c-1.336,1.67.167,3.34-1.5,5.01a0.508,0.508,0,0,0,0,.668c0.334,2.84-1.169,6.013-1.67,9.019a23.6,23.6,0,0,1-1,3.674,1.034,1.034,0,0,0-.668.334c0-.835.334-1.67,0.334-2.338-1,2.338-1.5,4.676-2.171,6.68a41.823,41.823,0,0,1-1.169,4.342,131.795,131.795,0,0,1-3.173,17.035c-1,2.171-.334,4.175,1.837,4.676a2,2,0,0,1,1.336.668c0.5,0.835,1.336.835,2.5,0.668a16.1,16.1,0,0,1,2-.334c2.171-.167,2.338-0.334,3.34-2.672a9.526,9.526,0,0,0,1.837-1.837,5.622,5.622,0,0,0,1.837-3.34c-0.835-1.67.167-3.34,0-4.676-0.5-2.171,1.5-4.509.668-6.179-0.167-.167,0-0.334-0.167-0.5,1.5-3.508,1.837-6.681,2.672-10.021,0.334-1.5.5-2.672-.668-2.672-0.835-2.171,2-4.175,2.506-6.513a8.749,8.749,0,0,1-.836.5l1.17-4.175a5.9,5.9,0,0,1,.167-1,6.218,6.218,0,0,0,1.169-5.678,1.976,1.976,0,0,1,.167-1.67c0.5-1.169,2.171-2.338,1-3.34a0.893,0.893,0,0,1,0-.668c1.837-2.171,1.837-4.342,2.171-6.513,0.5-2.505.668-5.01,1-7.181,0.167-2.171.5-4.676,0.835-7.014,0.668-4.509,2.839-9.018,5.01-13.862a6.874,6.874,0,0,1,.5-1.336c0-2.171,0-4.509-2.338-5.01a2.379,2.379,0,0,1-.668-0.334,11.431,11.431,0,0,0-2.839-3.507,8.387,8.387,0,0,0-4.509-1.837c-1.67-.334-3.341,1.5-5.178,2.672A61.686,61.686,0,0,0,112.244,70.8c-2.338,3.507-5.177,6.513-7.516,9.853a13.312,13.312,0,0,0-3.34,4.843c-6.68,8.851-15.03,18.872-7.014-1.336,0.668-1.5.835-3.173,1.67-5.01,1.67-3.841.668-.5,0.835-4.342,0-.334-0.167-0.668.167-0.835a4.584,4.584,0,0,0,.835-3.674,11.086,11.086,0,0,1,.167-2.171c-0.5-1.169-1.837-1.5-3.841-1.169a6.71,6.71,0,0,1-4.843-.668,4.7,4.7,0,0,0-3.34-.668,15.557,15.557,0,0,0-8.851,6.346l-2.505,3.34C73.164,77.484,71.16,79.488,69.657,81.659Zm32.566,7.348c1-2.338,6.514-10.187,8.518-11.858-2,2.839-2.839,5.845-5.345,8.35a2.062,2.062,0,0,0-.668,1.336A4.147,4.147,0,0,1,102.223,89.007Zm-15.03,21.544c1.67-4.175,7.014-12.358,9.519-14.529a4.7,4.7,0,0,1-1,2.505,16.28,16.28,0,0,0-4.843,6.68,45.9,45.9,0,0,1-2.505,4.175A3.9,3.9,0,0,1,87.193,110.551Zm-22.045,31.4a2.476,2.476,0,0,0,.167-1.169,3.783,3.783,0,0,0,1-1.169v0.835l-0.835,1.5H65.148ZM161.17,70.47c0.167-.167-4.008,2.171-4.008,2.171,0.334,0.167-.167,3.674.167,3.674,8.016,2.338,12.025-1.5,9.018,9.686-0.835,3.173-.5,2.338-1.336,5.678-0.5,1.67-.334,3.34-0.668,5.01-0.334,1.5-.167,2.839-0.835,4.342a34.6,34.6,0,0,0-2.171,6.68,24.531,24.531,0,0,1-3.507,9.019c-0.5.5-.668,1.169-1,1.5a56.176,56.176,0,0,0-3.006,10.521c-0.835,2.672-1.67,5.511-2.672,8.351l-1,1.336a11.692,11.692,0,0,1-2.839,1.5c-2.172.668-4.176,1.169-6.347,2a58.769,58.769,0,0,0-6.68,3.006,3.256,3.256,0,0,0-1.5,1.5l-2.839,4.175c-1.67,3.006-1.67,4.342.668,5.344a4.62,4.62,0,0,0,2.672.835c3.674-.334,7.181-0.334,10.521-0.835,4.176-.5,8.685-1.336,13.027-2l10.688-1.5c2.172-.334,3.675-0.167,4.51.835,0.5,0.835,1.67.334,3.006-.167,1-.5,1.5-1,1.169-1.837-0.334-1.169.167-2.5,1.5-4.175,0.334-.5.5-1.5,0.835-2.171,0.5-1.67,1.5-3.674,1-5.177a3.037,3.037,0,0,1,.5-1.837c-1.67.334-1.169-1-1.169-2.172a33.4,33.4,0,0,0-6.012-.334c-9.353,1.838-3.34-9.519-1.336-15.03l3.674-11.19c0.668-2.171.835-4.175,1.336-6.179L181.211,84.5c1-3.674,1.336-3.841,2.171-7.348,2.171-5.344,10.355-4.509,15.365-6.346,0.334-1.169,1.169-4.509.334-4.843-0.835-.5-0.835-1.67-0.668-2.672,0.668-3.507-1-5.511-4.008-6.179-2.338-.835-5.512-0.668-8.685.167-5.177,1.336-10.02,2.505-15.03,4.175-2.506.668-5.178,0.668-8.017,3.006a4.822,4.822,0,0,1-2.338,3.34,6.238,6.238,0,0,1-1,1.169C158.665,70.136,162.172,69.134,161.17,70.47Zm-23.381,84.171a3.7,3.7,0,0,1,2.672-1.5c3.34-.334,7.349-1,11.19-1.336a17.071,17.071,0,0,0,4.509-1.336,4.365,4.365,0,0,1,1.336-.5c2.171-.334,4.175-0.5,6.179-1,1-.167,1.837-0.5,2.5.5l-4.509.5c0.668,0.334,1.67,0,2.5,0a8.371,8.371,0,0,1,2.839-.167c0.835,0,1.67.167,2.84,0.167-1.838,1.336-2.506,1-4.009,1.5a15.162,15.162,0,0,0-3.841.5,31.809,31.809,0,0,1-4.843,1.5c-1.67.334-3.507,0.5-5.177,0.668l-8.852,1c-1.67,0-3.173-.167-4.843-0.167Zm47.6-84c-1.169.167-1.336-.334-0.835-1.169,2.505-1.67,3.507-.5,5.511-0.167Zm-20.709,2.672a0.333,0.333,0,0,0,.167-0.334,2.118,2.118,0,0,1,1-.167,1.506,1.506,0,0,1,.835-0.167v0.334Zm76.652,56.114a0.164,0.164,0,0,0,.167-0.167c0.835,1.5,1.837,3.006,2,4.676a27.657,27.657,0,0,0,1,3.508,31.447,31.447,0,0,1,3.006,6.346c1,1.5,2,2.5,1.336,4.676-0.167.5,0.167,0.5,0.167,0.668a9.36,9.36,0,0,0,1.67,2.5,46.008,46.008,0,0,1,2.839,4.843c0.5,0.835.668,1.67,1.169,2.506l4.008,5.177c0.835,1,1.837.835,3.508-.5l3.006-3.006c1.5-1.336,1.67-1.837,1.169-3.007-0.5-3.006-.835-6.012-1.169-9.018-0.167-.167,0-0.167,0-0.334,0.167-1.5.668-3.173-.5-4.175a3.462,3.462,0,0,1,.334-1c0.167-3.173.5-6.346,0.835-9.52a21.811,21.811,0,0,0-1-6.513c-0.167-1.5-.668-2.839-0.835-4.175a36.269,36.269,0,0,1-1.169-4.008,42.716,42.716,0,0,1-.835-4.509c-0.835-6.514-2.506-6.347,3.507-9.854a109.773,109.773,0,0,0,16.867-14.7,52.087,52.087,0,0,0,6.013-8.35c3.173-5.845,4.843-11.356,4.509-16.534-0.334-4.342-1.5-8.35-3.841-11.189-2.839-3.006-6.848-4.676-11.691-5.01-2-.334-4.342-0.5-6.513-0.668a76.526,76.526,0,0,0-16.367,0c-7.849,1-15.866,1.837-23.882,4.008L218.616,55.1c-1.169.5-2.673,1-3.341,2.171l-3.841,5.678a2.533,2.533,0,0,0-.668,1.336c-0.668,1.5-1.5,2.839-2,4.342-0.835,2.839-.5,5.511-0.5,8.016a5.932,5.932,0,0,0,.668,1.5,7.9,7.9,0,0,0,1.169,2c0.835,1.5,2.672,2,5.177,1,5.011-2.672,12.86-2.171,7.349,5.678a254.633,254.633,0,0,0-11.19,26.387l-2,5.011a3.687,3.687,0,0,1-2.338,1.837l-4.509,1.5a12.685,12.685,0,0,1-1.837.668,1.625,1.625,0,0,0,1,.835c0.167,0.334.835,0.5,0.835,0.835a1.284,1.284,0,0,0,1.336,1.5c2.171,0.334,2.171.334,1.169,2.672a4.365,4.365,0,0,1-.5,1.336c-1.67,3.841-3.173,7.85-4.509,11.691a6,6,0,0,0-.668,3.674,2.572,2.572,0,0,1-.334,1.837c-1,3.34-2,6.346-3.173,9.519a15.135,15.135,0,0,0-1.169,6.347,8.808,8.808,0,0,1-.5,2c-0.669,1.837-.334,2.5,1.169,2.5a5.567,5.567,0,0,1,1.67,0,2.334,2.334,0,0,0,2.338-1.169c0.167-.167,1-0.334,1.169-0.5a6.855,6.855,0,0,0,2.839-1.169c2.171-.835,4.008-1.336,5.678-2.839a0.333,0.333,0,0,0,.334-0.167l4.509-1.5a5.438,5.438,0,0,0,4.009-4.009c0.835-2,1.336-3.841,2.171-5.845,1.67-4.008,3.173-8.016,5.01-12.191a56.983,56.983,0,0,0,3.674-9.019c1-2.5,1.67-4.843,2.672-7.181a2.577,2.577,0,0,1,1.67-1.837c2.672-1.5,3.674-1.169,4.342.668,1,3.006,1.838,6.012,2.673,9.018a4.08,4.08,0,0,0,1.336,2.5c0.167,0,.167-0.167.334-0.167A8.285,8.285,0,0,0,241.329,129.423Zm21.544-32.9c-9.687,5.01-27.724,22.713-28.893,4.342a8.7,8.7,0,0,0-.835-4.676,6.59,6.59,0,0,1-1-2.505l-0.5-3.507c0-10.522.334-10.689,17.7-15.532a85.063,85.063,0,0,1,14.363-.668,40.612,40.612,0,0,0,4.509,0,14.97,14.97,0,0,1,8.851,2.505c2.171,1.169,1.837,3.674-.668,6.513-3.173,3.841-6.513,8.016-10.354,11.19Zm88.508,4.342a24.666,24.666,0,0,1,.167-3.507c0.5-2.839.668-5.678,1.67-8.35a33.635,33.635,0,0,0,2-10.689c0-.668.167-1.336,0.167-1.837,0.835-4.843,1.5-9.519,2.171-14.363a27.236,27.236,0,0,0,.167-11.022,8.731,8.731,0,0,0-1-2.672,45.51,45.51,0,0,0-3.841-4.175,4.453,4.453,0,0,0-2.338-1.169l-7.515-1.837c-1.837-.5-2.338-0.334-3.341,1.5a91.063,91.063,0,0,0-6.68,17.369c-0.668,3.507-1.336,7.014-1.67,10.689a15.9,15.9,0,0,1-3.006,8.35l-12.86,20.208c-3.674,5.511-6.847,11.523-11.356,16.534a9.322,9.322,0,0,0-.835,1.336l-5.344,6.179a1.7,1.7,0,0,1-1.5.334,42.515,42.515,0,0,1-4.844-2.171c-1-.668-2-1.169-3.173-0.668a2.629,2.629,0,0,0,.835,2.839l3.34,2.5,1.5,1.336c-2.171,2.839.5,0.167-1.837,2.505l-4.509,4.676c-2.839,3.341-5.678,6.848-8.35,10.355,3.006,4.175-.668,9.519,7.849,8.183,3.507,1.169-1.336-2.171,2.5-2.5a3.492,3.492,0,0,0,2.171-1.169c2.839-4.676,6.514-9.018,9.353-14.029,1.336-2.171,3.34-4.843,6.179-5.845,2.839-.668,5.845-1.5,8.517-2.338,3.508-1.336,7.015-2.338,10.021-4.676a19.591,19.591,0,0,1,1.837-.835l0.5,2.672c0.5,7.348,1,14.53,3.173,21.544l1,4.008a3.3,3.3,0,0,1-.167,1.5c-1,.5-0.668,1.336-0.668,2a38.612,38.612,0,0,0,4.843,11.858,12.823,12.823,0,0,0,2.672,2.5,3.218,3.218,0,0,0,2.84.668c0-2,1.67-1.336,3.006-1.5a1.251,1.251,0,0,1,.167-0.835l0.5-.668,1.5,1.5a38.17,38.17,0,0,0,.334-4.175c0-1.837-.167-3.674-0.167-5.512a62.592,62.592,0,0,0-.835-7.849,25.3,25.3,0,0,1,0-10.02,22.632,22.632,0,0,0,.334-3.34c0.167-4.343.167-8.852,0.167-13.027a1.3,1.3,0,0,1,.668-0.5,0.631,0.631,0,0,1,.334-0.334c1.169-.668,1.5-2.672.5-2.839-0.334.334-.5,0.835-1.169,1.5,0-1.169,0-2,.835-2.338,1.336-.5,1.336-1.5,1.5-2.672,0-1.5.334-3.174,0.334-4.677a2.407,2.407,0,0,1,1.336-2.171c4.509-2.672,8.684-5.678,13.361-8.016a3.151,3.151,0,0,0,2.171-1.67c-1.169-.5-2-1.169-3.006-1.5a3.342,3.342,0,0,0-2.172-.334,16.273,16.273,0,0,0-6.68,2l-3.34,1.5Zm-31.731,4.342c5.845-10.688,10.187-20.542,8.851-2.5-0.167,2.672-.334,5.511-0.334,8.183a2.512,2.512,0,0,1-1.67,2.338C313.971,121.407,309.8,118.067,319.65,105.207Zm68.635-31.731a37.9,37.9,0,0,0-4.509,5.511,1.808,1.808,0,0,1,1,.167,12.259,12.259,0,0,1-1.67,2.171c-0.668.668-1,2.171-2.338,2-0.668,1.169-2.839,1.837-2.171,3.841a6.062,6.062,0,0,1-.5,1.169c-1.336,2.505-3.006,5.177-4.509,7.515-2,3.006-3.674,6.012-5.512,9.185-1,1.67-2.171,3.34-3.006,5.01-0.835,1.837-1.5,4.009-2.338,5.846-2,4.342-4.008,8.684-4.843,13.527a1.8,1.8,0,0,0-1.169.334,5.307,5.307,0,0,0,1.5.5,1.443,1.443,0,0,1,1,.5c0.5,1.336,1.5,2.839,2.171,4.175a6.807,6.807,0,0,1,1.169-.334l2.505,9.186a23.783,23.783,0,0,0-2.672-.835,7.842,7.842,0,0,1,1,1.5,0.885,0.885,0,0,0,.5.334c1.169,0.167,1.169.167,0.668,1.5a1.506,1.506,0,0,1-.835-0.167,2.062,2.062,0,0,0,1.336.668,3.116,3.116,0,0,1,.668.5c-0.334,1.169.668,1.5,1.5,1.837a119.2,119.2,0,0,0,15.7,8.851,9.589,9.589,0,0,0,8.016.334c1.838-.5,3.508-1.67,5.345-2.338a16.569,16.569,0,0,0,4.676-3.173c1.837-1.5,3.841-2.5,5.177-4.676a3.959,3.959,0,0,1,2.505-1.5,9.579,9.579,0,0,1,.167,3.006,5.825,5.825,0,0,0,1,4.175c-0.5-2.171-.5-4.843.5-6.346l0.835,6.513H410a9.584,9.584,0,0,0,1.5,1.336,13.5,13.5,0,0,0,7.85,4.176c0.668-.835,1-1.838,1.169-1.838,1,0,1.169-.835,1.336-1.5a1.481,1.481,0,0,1,.668-0.835,4.126,4.126,0,0,0,.668,1.5l-0.334-8.35a0.806,0.806,0,0,0-.167-0.668c-0.668-1.837,0-3.841.167-5.678a48.006,48.006,0,0,1,1.336-6.347,4.286,4.286,0,0,1,.334-0.835,26.636,26.636,0,0,1,2-4.509,2.665,2.665,0,0,1,1.169-1.5c1.336-.334,2.672-1.837,4.342-1.5a0.546,0.546,0,0,0,.668-0.167,2.441,2.441,0,0,1,2.171-.835l3.675-.334a7.261,7.261,0,0,1,1.169-.668l-1.5-1.336c1.169-.835,2.338-0.167,3.173-1.837-1.5-1.169.668-2,.668-3.34l-1.169-1.5c-1.169-1.169-3.173-2-4.008-3.674s-1.838-1.337-3.174-1a5.681,5.681,0,0,1-1.67.167l-3.507.334c1,0.669,2.171-.668,2.5.836a37.662,37.662,0,0,1-4.342,0c-4.342,0-9.018-.167-13.194-0.334-1.5,0-2.839.167-3.841-.5a4.236,4.236,0,0,0-2-.334c-1.169.167-1,0-2.5-1a25.14,25.14,0,0,0-3.674-1.837,3.788,3.788,0,0,1-.668.167c0,0.668-.167,1.169-0.167,1.67a5.859,5.859,0,0,0-1.336.835l1.5,3.675a10.645,10.645,0,0,1-1.5.334l1.169,4.008h1a3.73,3.73,0,0,0,3.173,3.34,2.127,2.127,0,0,1,1.837.835l-0.668,1a28.654,28.654,0,0,1,4.008.668c-0.668,1.169-2,1.67-2.338,3.173l2-1.169c0.5,0.835,0,1.5-.668,2l-2.338,2.5a16.862,16.862,0,0,0-2.171,2.672c1.169-1.169,2.5-2.338,3.674-3.674a2.374,2.374,0,0,1,1-.334,61.241,61.241,0,0,1-9.686,10.021,6.308,6.308,0,0,1,2-2.505c1.169-1.169,2.5-2,3.006-3.508a3.5,3.5,0,0,0-1,.669l-9.352,9.018c-1.169.835-2.171,1.837-3.174,2.505l-1.169.334v-0.334c0.668-.668,1.169-1.67,1.838-2.505,0-.167-0.167-0.167-0.167-0.334-1.17,1-2.172,1.67-3.174,2.672a7.467,7.467,0,0,1-3.841,1.837l-0.5-.835c-0.334.167-.668,0.668-0.835,0.5a6.032,6.032,0,0,1-3.173-2,4.63,4.63,0,0,1,1.5-.835,23,23,0,0,1-4.008-2.338,5.308,5.308,0,0,1-1.5-2.5,25.949,25.949,0,0,1,.5-10.689l2.171-7.515,2.839-7.515c2-5.679,5.01-11.19,7.014-17.035l1.837-4.676c0.668-1.67,1-3.507,2-4.843,2-3.507,4.342-6.68,6.68-10.187a14.424,14.424,0,0,0,1.67-2.672,13.473,13.473,0,0,1,2.839-4.008c7.181-7.181,18.371-9.185,18.872,1.336a25.337,25.337,0,0,0-.5,3.507l-1.5,9.352c-0.5,3.507-1.169,7.181-1.837,10.688-0.334,2.171.5,3.34,2.171,3.841a27.176,27.176,0,0,0,6.179,2.171,3.828,3.828,0,0,0,4.342-.5c1.67-1.336,3.34-2.5,4.843-3.841a8.789,8.789,0,0,0,1.838-2.505,51.342,51.342,0,0,0,2.839-7.014c1-3.34,2-7.014,1.67-10.688-0.167-1.837-.334-3.674-0.334-5.344,0.167-1.837.167-3.674-1.336-4.509l-0.5-.668a12.405,12.405,0,0,0-3.841-4.843c-2.339-2.505-5.178-4.342-7.683-6.346a4.559,4.559,0,0,0-2-1.5,25.669,25.669,0,0,0-8.851-2.338,4.7,4.7,0,0,0-4.176,1.169,14.493,14.493,0,0,1-5.177,3.34,18.627,18.627,0,0,0-4.008,2.171c-2.5,1.67-5.01,3.34-7.515,5.177a17.505,17.505,0,0,0-1.336,1.837c-0.668.5-1.5,0.668-1.837,1a18.242,18.242,0,0,0-3.174,3.006,9.762,9.762,0,0,1-2.171,2.338v0.167Zm-0.668,2.505c-0.5-1.169.5-1.837,0.668-2.505,0.167,0.334.5,0.5,0.334,0.668Zm-5.344,74.652a3.494,3.494,0,0,1-1-.668,0.333,0.333,0,0,1,.167-0.334l1.169,0.334Zm-22.212-23.214c-0.668-.5-0.5-1,0.167-1.5C360.228,126.417,360.061,126.918,360.061,127.419Zm1-2.839c0-.334.167-0.668,0.167-1.169,0.167,0,.334,0,0.334.167a2.374,2.374,0,0,1-.334,1h-0.167ZM466.107,96.189c10.02,3.34-9.018,11.022-13.361,14.863a31.879,31.879,0,0,0-10.02,14.864c-2.338,6.847-2.171,13.528,1.5,19.707a13.152,13.152,0,0,1,1.336,2.672,20.64,20.64,0,0,0,10.187,7.849,25.469,25.469,0,0,0,10.689,1.169,3.277,3.277,0,0,1,2.505-.167c0.835,0.5,1.837-.5,2.672-0.334,2.171-.334,4.175-0.334,6.346-0.668a47.443,47.443,0,0,0,6.347-.835,29.612,29.612,0,0,0,5.344-.835,45.383,45.383,0,0,0,9.686-4.342,17.148,17.148,0,0,0,5.011-4.175,5.176,5.176,0,0,1,2.171-1,13.812,13.812,0,0,0-2.672-5.678c-0.668-1.336-1-1.336-2.338-.334a25.074,25.074,0,0,1-8.351,3.006l-10.02,1c-4.676.835-9.687,1.169-14.363,1.837a59.007,59.007,0,0,1-10.855-.334,10.174,10.174,0,0,1-5.178-2.171c-1.5-1.336-1.67-5.511-1.169-7.182,3.841-11.857,27.223-27.556,36.241-31.731a11.547,11.547,0,0,0,3.674-2.672,11.51,11.51,0,0,1,4.008-3.507V96.857a2.532,2.532,0,0,0-1.837-2.171,13.649,13.649,0,0,0-6.346-.167,46.857,46.857,0,0,1-11.858-.167C449.406,92.849,495,78.319,497,82.661a26.9,26.9,0,0,1,6.18.668c3.173,0.668,6.012-.5,8.517-3.173a6.123,6.123,0,0,0,1.837-5.511,27.875,27.875,0,0,1-.835-3.006l-1.5-6.346c-0.5-2.338-1.5-4.342-3.34-5.344a23.145,23.145,0,0,0-5.845-1.5,58.681,58.681,0,0,0-23.381,2.505,36.492,36.492,0,0,0-13.194,7.682,18.645,18.645,0,0,0-6.012,10.355c-1.169,5.01.334,9.352,2.839,13.361A16.765,16.765,0,0,0,466.107,96.189Z"/>
</svg>
