<?xml version="1.0" encoding="UTF-8" standalone="no"?>
<!DOCTYPE svg  PUBLIC '-//W3C//DTD SVG 1.1//EN'  'http://www.w3.org/Graphics/SVG/1.1/DTD/svg11.dtd'>
<svg width="226pt" xmlns="http://www.w3.org/2000/svg" viewBox="0 0 226 87" version="1.1" height="87pt">
 <path d="m0 0h226v30.73c-7.08 0.02-14.16-0.08-21.24 0.11 3.51-3.4 7.2-7.56 6.85-12.8 0.42-5.68-3.09-11-7.86-13.82-7.66-4.63-17.4-4.87-25.79-2.26-7.12 2.28-13.39 9.09-12.5 16.95 0.13 4.92 3.53 8.65 6.84 11.89-4.13-0.06-8.26-0.1-12.39 0.02-0.81-2.98-3.16-4.54-6.12-4.9-0.24-5.91 0.6-11.94-0.67-17.75-1.57-6.04-8.4-8.51-14.07-7.84-4.1 0.01-7.64 2.27-10.61 4.88-0.04-0.96-0.1-2.88-0.14-3.84-4.91-0.02-10.16-1.06-14.74 1.21 0 1.58 0.02 3.16 0.03 4.74 1.66 0.7 3.36 1.3 5.08 1.83 0 5.56 0.06 11.12-0.01 16.68-2.95 0.27-4.83 2.2-5.64 4.95h-6.04c-0.64-2.89-3.07-4.2-5.74-4.85-0.2-6.4 0.8-13.04-1.35-19.22-2.14-4.93-8.09-6.32-12.97-6.39-6.55-0.05-13.71-0.41-19.54 3.06-2.43 1.41-1.89 4.02-0.93 6.18 7.1 1.71 13.34-4.78 20.34-2.62 3.05 0.78 3.72 4.09 4.49 6.67-8.82-0.1-19.22-2.24-26.42 4.23-3.86 3.34-2.97 8.97-0.92 13.03-3.08-0.12-6.16-0.12-9.23-0.17-0.04-0.76-0.13-2.27-0.17-3.02-1.63-0.67-3.3-1.25-4.98-1.79-0.44-6.58 1.26-13.66-1.63-19.85-4.71-7.89-17.16-7.38-23.2-1.31-0.37-0.83-1.12-2.48-1.49-3.3-4.58-0.41-9.43-0.74-13.81 0.93-0.05 1.61-0.09 3.22-0.13 4.83 1.71 0.75 3.45 1.43 5.21 2.06 0.04 5.56-0.01 11.12 0.02 16.69-1.64 0.5-3.28 1.03-4.91 1.59-0.08 0.82-0.25 2.45-0.34 3.27-3.09-0.03-6.19-0.02-9.28-0.16v-30.64z" fill="#f7f7f7"/>
 <path d="m9.43 2.36c4.38-1.67 9.23-1.34 13.81-0.93 0.37 0.82 1.12 2.47 1.49 3.3 6.04-6.07 18.49-6.58 23.2 1.31 2.89 6.19 1.19 13.27 1.63 19.85 1.68 0.54 3.35 1.12 4.98 1.79 0.04 0.75 0.13 2.26 0.17 3.02 3.07 0.05 6.15 0.05 9.23 0.17-2.05-4.06-2.94-9.69 0.92-13.03 7.2-6.47 17.6-4.33 26.42-4.23-0.77-2.58-1.44-5.89-4.49-6.67-7-2.16-13.24 4.33-20.34 2.62-0.96-2.16-1.5-4.77 0.93-6.18 5.83-3.47 12.99-3.11 19.54-3.06 4.88 0.07 10.83 1.46 12.97 6.39 2.15 6.18 1.15 12.82 1.35 19.22 2.67 0.65 5.1 1.96 5.74 4.85h6.04c0.81-2.75 2.69-4.68 5.64-4.95 0.07-5.56 0.01-11.12 0.01-16.68-1.72-0.53-3.42-1.13-5.08-1.83-0.01-1.58-0.03-3.16-0.03-4.74 4.58-2.27 9.83-1.23 14.74-1.21 0.04 0.96 0.1 2.88 0.14 3.84 2.97-2.61 6.51-4.87 10.61-4.88 5.67-0.67 12.5 1.8 14.07 7.84 1.27 5.81 0.43 11.84 0.67 17.75 2.96 0.36 5.31 1.92 6.12 4.9 4.13-0.12 8.26-0.08 12.39-0.02-3.31-3.24-6.71-6.97-6.84-11.89-0.89-7.86 5.38-14.67 12.5-16.95 8.39-2.61 18.13-2.37 25.79 2.26 4.77 2.82 8.28 8.14 7.86 13.82 0.35 5.24-3.34 9.4-6.85 12.8 7.08-0.19 14.16-0.09 21.24-0.11v32.86c-9.66 0.01-19.32-0.01-28.98 0.01-0.78-0.88-1.5-1.81-2.23-2.73 3.58-3.38 7.95-5.8 12.84-6.66 1.45-2.57 0.26-4.88-1.83-6.61-4.85 0.27-9.75-0.25-14.58 0.3-2.38 0.52-2.64 3.14-3.03 5.1 0.81 0.6 1.62 1.19 2.44 1.79-3.03 2.1-5.94 4.37-8.93 6.52 0.02-8.98 0.08-17.96-0.03-26.93-4.73-0.85-9.57-0.79-14.29 0.05-1.37 2.41-1.27 5.05 0.63 7.13l3.48 0.2c0 7.29-0.1 14.58 0.07 21.88-12.49-0.12-24.98 0-37.47-0.07-0.05-2.57 2.18-4.04 4.06-5.34 2.1-1.35 4.29-2.81 6.84-3.07 2.78 0.31 5.31 1.63 8.04 2.18 3.46 0.83 7.87-2.26 6.57-6.1-1.77-4.48-7.48-4.61-11.57-4.66-5.52 1.22-10.35 4.22-14.65 7.79 0.02-2.01 0.05-4.02 0.06-6.03-4.5-0.96-9.15-0.84-13.72-0.56-3.1 0.37-4.39 4.53-2.22 6.7 1.79 1.26 4.12 0.97 6.18 1.31-0.04 2.62-0.05 5.23-0.05 7.85-5.91-0.04-11.82-0.19-17.73 0.13 0.48-7.66-5.99-13.56-12.81-15.63-4.56-1.31-9.4-1.05-14.08-0.73-8.51 0.92-17.39 7-17.83 16.23-2.74-0.04-5.49-0.06-8.23-0.08 0.62-2.5 1.24-5.01 1.86-7.51 1.52-0.55 3.1-1.01 4.52-1.8 1.46-1.63 0.59-3.83 0.31-5.7-5.53-1.29-11.29-0.97-16.92-0.74-3.06 0.24-3.29 3.58-3.41 5.95 1.76 0.83 3.58 1.55 5.43 2.17-0.43 2.55-0.93 5.08-1.39 7.63-1.61 0.03-3.22 0.06-4.83 0.09-0.96-2.42-1.62-5.17-3.56-7.02-2.26-1.01-4.77-0.28-7.11-0.05-0.9 2.3-1.77 4.62-2.53 6.98-1.65 0.04-3.29 0.08-4.94 0.12-0.5-2.59-0.94-5.19-1.31-7.8 1.56-0.53 3.12-1.08 4.67-1.64 0-1.72-0.04-3.43-0.11-5.14-0.63-0.35-1.91-1.06-2.54-1.41-5.02 0.13-10.08-0.34-15.08 0.22-2.77 0.7-3.12 3.75-2.25 6.06 1.51 0.9 3.19 1.45 4.83 2.04 0.74 2.53 1.41 5.09 2.06 7.65-3.55-0.06-7.1-0.07-10.65-0.08v-32.94c3.09 0.14 6.19 0.13 9.28 0.16 0.09-0.82 0.26-2.45 0.34-3.27 1.63-0.56 3.27-1.09 4.91-1.59-0.03-5.57 0.02-11.13-0.02-16.69-1.76-0.63-3.5-1.31-5.21-2.06 0.04-1.61 0.08-3.22 0.13-4.83z" fill="#01016a"/>
 <path d="m25.29 14.36c0.04-5.45 7.54-8.3 11.69-5.31 1.59 1.11 1.73 3.19 2.38 4.85-0.07 4.03-0.04 8.06-0.05 12.09-1.67 0.45-3.32 0.96-4.94 1.55-0.04 0.72-0.1 2.17-0.14 2.9-1.18 0.2-2.37 0.4-3.56 0.59-0.41-1.19-0.84-2.38-1.26-3.56-1.53-0.72-3.43-0.91-4.54-2.3 0.34-3.6 0.33-7.2 0.42-10.81z" fill="#f7f7f7"/>
 <path d="m178.07 13.24c2.45-4.2 7.56-5.73 12.17-5.64 4.5 1.06 10.06 4.01 9.54 9.44 1 7.21-7.44 11.88-13.74 10.26-6.53-0.66-10.97-8.1-7.97-14.06z" fill="#f7f7f7"/>
 <path d="m129.51 13.99c0.74-6.35 11.57-8.79 13.71-2.07 0.62 4.66 0.22 9.39 0.24 14.08-2.79 0.24-5.36 1.67-5.5 4.74-1.14 0.01-2.27 0.01-3.41 0.01-0.04-0.75-0.14-2.26-0.18-3.02-1.64-0.68-3.31-1.28-4.99-1.83 0.04-3.97-0.2-7.95 0.13-11.91z" fill="#f7f7f7"/>
 <path d="m73.01 24.12c2.51-7.17 11.91-5.89 17.79-4.6-0.23 1.84 0.41 4.04-0.56 5.66-3.89 2.41-8.7 3.11-13.17 2.3-1.83-0.36-2.81-2.17-4.06-3.36z" fill="#f7f7f7"/>
 <path d="m167.38 34.43c4.72-0.84 9.56-0.9 14.29-0.05 0.11 8.97 0.05 17.95 0.03 26.93 2.99-2.15 5.9-4.42 8.93-6.52-0.82-0.6-1.63-1.19-2.44-1.79 0.39-1.96 0.65-4.58 3.03-5.1 4.83-0.55 9.73-0.03 14.58-0.3 2.09 1.73 3.28 4.04 1.83 6.61-4.89 0.86-9.26 3.28-12.84 6.66 0.73 0.92 1.45 1.85 2.23 2.73 2.76 3.02 5.75 5.84 8.36 9 2.01 0.45 4.03 0.9 6.05 1.31 0.09 1.92 0.11 3.85 0.09 5.77-5.39 1.54-11.06 1.03-16.59 0.97-2.01 0.2-3.38-1.46-4.89-2.46 1.13-1.55 2.29-3.07 3.48-4.58-2.15-2.24-4.28-4.49-6.43-6.73-1.8 1.37-3.6 2.75-5.4 4.13-0.01 3.19-0.03 6.38-0.09 9.57-4.38 0.01-8.83 0.53-13.16-0.25-2.94-1.12-1.94-4.49-1.09-6.71 1.41-0.32 2.83-0.66 4.25-1 0.02-2.99 0.03-5.99-0.04-8.98-0.17-7.3-0.07-14.59-0.07-21.88l-3.48-0.2c-1.9-2.08-2-4.72-0.63-7.13z" fill="#f7f7f7"/>
 <path d="m133.38 54.37c4.3-3.57 9.13-6.57 14.65-7.79 4.09 0.05 9.8 0.18 11.57 4.66 1.3 3.84-3.11 6.93-6.57 6.1-2.73-0.55-5.26-1.87-8.04-2.18-2.55 0.26-4.74 1.72-6.84 3.07-1.88 1.3-4.11 2.77-4.06 5.34 0.15 3.23 0.31 6.47 0.51 9.7 4.54-0.48 9.15-0.68 13.65 0.29 0.34 0.61 1.03 1.83 1.37 2.44-0.06 0.81-0.17 2.44-0.23 3.25-4.77 2.47-10.28 1.14-15.41 1.42-6.32-0.32-12.93 1.03-19-1.31 0.26-1.76 0.42-3.55 0.86-5.28 2.32-1.43 5.16-1.23 7.76-1.55 0.03-2.97 0.03-5.93 0.03-8.89 0-2.62 0.01-5.23 0.05-7.85-2.06-0.34-4.39-0.05-6.18-1.31-2.17-2.17-0.88-6.33 2.22-6.7 4.57-0.28 9.22-0.4 13.72 0.56-0.01 2.01-0.04 4.02-0.06 6.03z" fill="#f7f7f7"/>
 <path d="m3.76 53.97c-0.87-2.31-0.52-5.36 2.25-6.06 5-0.56 10.06-0.09 15.08-0.22 0.63 0.35 1.91 1.06 2.54 1.41 0.07 1.71 0.11 3.42 0.11 5.14-1.55 0.56-3.11 1.11-4.67 1.64 0.37 2.61 0.81 5.21 1.31 7.8 0.44 2.82 1.2 5.58 2.27 8.23 0.95-2.76 1.77-5.57 2.67-8.35 0.76-2.36 1.63-4.68 2.53-6.98 2.34-0.23 4.85-0.96 7.11 0.05 1.94 1.85 2.6 4.6 3.56 7.02 0.84 2.6 1.54 5.24 2.2 7.88 0.36 0.06 1.07 0.18 1.42 0.24 0.29-2.76 0.71-5.49 1.21-8.21 0.46-2.55 0.96-5.08 1.39-7.63-1.85-0.62-3.67-1.34-5.43-2.17 0.12-2.37 0.35-5.71 3.41-5.95 5.63-0.23 11.39-0.55 16.92 0.74 0.28 1.87 1.15 4.07-0.31 5.7-1.42 0.79-3 1.25-4.52 1.8-0.62 2.5-1.24 5.01-1.86 7.51-1.27 4.82-1.94 9.79-3.54 14.52-1.54 4.62-8.23 4.49-11.6 2.1-2.89-4.44-3.89-9.8-5.57-14.77-0.33-0.03-1-0.1-1.33-0.13-1.33 4.99-2.18 10.35-5.11 14.7-3.36 2.93-10.75 2.67-11.9-2.41-1.3-4.58-2.02-9.31-3.25-13.91-0.65-2.56-1.32-5.12-2.06-7.65-1.64-0.59-3.32-1.14-4.83-2.04z" fill="#f7f7f7"/>
 <path d="m61.18 63.64c0.44-9.23 9.32-15.31 17.83-16.23 4.68-0.32 9.52-0.58 14.08 0.73 6.82 2.07 13.29 7.97 12.81 15.63-1.24 1.42-2.86 2.72-4.87 2.56-9.77 0.28-19.57-0.3-29.34 0.28 2.05 3.49 4.96 6.84 9.24 7.33 6.85 1.84 13.2-2.08 19.62-3.68 2.33-0.66 3.83 1.56 5.35 2.88-3.12 6.31-10.68 7.66-17 8.41-7.8 0.56-16.52-0.42-22.54-5.91-3.44-2.99-4.97-7.55-5.18-12z" fill="#f7f7f7"/>
 <path d="m71.9 60.56c3.26-7.48 13.49-8.48 19.86-4.6 1.77 0.99 2.56 2.91 3.3 4.68-7.72 0.04-15.45 0.15-23.16-0.08z" fill="#01016a"/>
 <path d="m20.38 63.68c1.65-0.04 3.29-0.08 4.94-0.12-0.9 2.78-1.72 5.59-2.67 8.35-1.07-2.65-1.83-5.41-2.27-8.23z" fill="#97cb05"/>
 <path d="m38.52 63.65c1.61-0.03 3.22-0.06 4.83-0.09-0.5 2.72-0.92 5.45-1.21 8.21-0.35-0.06-1.06-0.18-1.42-0.24-0.66-2.64-1.36-5.28-2.2-7.88z" fill="#97cb05"/>
 <path d="m0 63.58c3.55 0.01 7.1 0.02 10.65 0.08 1.23 4.6 1.95 9.33 3.25 13.91 1.15 5.08 8.54 5.34 11.9 2.41 2.93-4.35 3.78-9.71 5.11-14.7 0.33 0.03 1 0.1 1.33 0.13 1.68 4.97 2.68 10.33 5.57 14.77 3.37 2.39 10.06 2.52 11.6-2.1 1.6-4.73 2.27-9.7 3.54-14.52 2.74 0.02 5.49 0.04 8.23 0.08 0.21 4.45 1.74 9.01 5.18 12 6.02 5.49 14.74 6.47 22.54 5.91 6.32-0.75 13.88-2.1 17-8.41-1.52-1.32-3.02-3.54-5.35-2.88-6.42 1.6-12.77 5.52-19.62 3.68-4.28-0.49-7.19-3.84-9.24-7.33 9.77-0.58 19.57 0 29.34-0.28 2.01 0.16 3.63-1.14 4.87-2.56 5.91-0.32 11.82-0.17 17.73-0.13 0 2.96 0 5.92-0.03 8.89-2.6 0.32-5.44 0.12-7.76 1.55-0.44 1.73-0.6 3.52-0.86 5.28 6.07 2.34 12.68 0.99 19 1.31 5.13-0.28 10.64 1.05 15.41-1.42 0.06-0.81 0.17-2.44 0.23-3.25-0.34-0.61-1.03-1.83-1.37-2.44-4.5-0.97-9.11-0.77-13.65-0.29-0.2-3.23-0.36-6.47-0.51-9.7 12.49 0.07 24.98-0.05 37.47 0.07 0.07 2.99 0.06 5.99 0.04 8.98-1.42 0.34-2.84 0.68-4.25 1-0.85 2.22-1.85 5.59 1.09 6.71 4.33 0.78 8.78 0.26 13.16 0.25 0.06-3.19 0.08-6.38 0.09-9.57 1.8-1.38 3.6-2.76 5.4-4.13 2.15 2.24 4.28 4.49 6.43 6.73-1.19 1.51-2.35 3.03-3.48 4.58 1.51 1 2.88 2.66 4.89 2.46 5.53 0.06 11.2 0.57 16.59-0.97 0.02-1.92 0-3.85-0.09-5.77-2.02-0.41-4.04-0.86-6.05-1.31-2.61-3.16-5.6-5.98-8.36-9 9.66-0.02 19.32 0 28.98-0.01v23.41h-226v-23.42z" fill="#97cb05"/>
</svg>
